<svg xmlns="http://www.w3.org/2000/svg" width="177.29" height="35" viewBox="0 0 177.29 35"><rect class="svg__rect" x="0" y="0" width="82.25" height="35" fill="#3DA9F2"/><rect class="svg__rect" x="80.25" y="0" width="97.03999999999999" height="35" fill="#3283BA"/><path class="svg__text" d="M19.80 22L14.22 22L14.22 13.47L19.75 13.47L19.75 14.66L15.70 14.66L15.70 17.02L19.20 17.02L19.20 18.19L15.70 18.19L15.70 20.82L19.80 20.82L19.80 22ZM26.45 22L23.99 22L23.99 13.47L26.51 13.47Q27.64 13.47 28.52 13.97Q29.39 14.48 29.87 15.40Q30.35 16.33 30.35 17.52L30.35 17.52L30.35 17.95Q30.35 19.16 29.87 20.08Q29.39 21.00 28.49 21.50Q27.60 22 26.45 22L26.45 22ZM25.47 14.66L25.47 20.82L26.44 20.82Q27.61 20.82 28.23 20.09Q28.85 19.36 28.87 17.99L28.87 17.99L28.87 17.52Q28.87 16.13 28.26 15.40Q27.66 14.66 26.51 14.66L26.51 14.66L25.47 14.66ZM36.38 22L34.91 22L34.91 13.47L36.38 13.47L36.38 22ZM42.88 14.66L40.24 14.66L40.24 13.47L47.01 13.47L47.01 14.66L44.35 14.66L44.35 22L42.88 22L42.88 14.66ZM50.49 18.00L50.49 18.00L50.49 17.52Q50.49 16.28 50.93 15.32Q51.38 14.37 52.18 13.86Q52.99 13.35 54.03 13.35Q55.07 13.35 55.88 13.85Q56.69 14.35 57.13 15.29Q57.56 16.23 57.57 17.48L57.57 17.48L57.57 17.96Q57.57 19.21 57.14 20.16Q56.70 21.10 55.90 21.61Q55.09 22.12 54.04 22.12L54.04 22.12Q53.01 22.12 52.19 21.61Q51.38 21.10 50.94 20.17Q50.50 19.23 50.49 18.00ZM51.98 17.46L51.98 17.96Q51.98 19.36 52.52 20.13Q53.07 20.90 54.04 20.90L54.04 20.90Q55.03 20.90 55.56 20.15Q56.09 19.40 56.09 17.96L56.09 17.96L56.09 17.51Q56.09 16.09 55.55 15.34Q55.02 14.58 54.03 14.58L54.03 14.58Q53.07 14.58 52.53 15.33Q51.99 16.09 51.98 17.46L51.98 17.46ZM63.52 22L62.04 22L62.04 13.47L65.04 13.47Q66.51 13.47 67.31 14.13Q68.12 14.79 68.12 16.05L68.12 16.05Q68.12 16.90 67.70 17.48Q67.29 18.06 66.55 18.37L66.55 18.37L68.47 21.92L68.47 22L66.88 22L65.17 18.71L63.52 18.71L63.52 22ZM63.52 14.66L63.52 17.52L65.04 17.52Q65.79 17.52 66.21 17.15Q66.64 16.77 66.64 16.11L66.64 16.11Q66.64 15.43 66.25 15.05Q65.86 14.68 65.08 14.66L65.08 14.66L63.52 14.66Z" fill="#FFFFFF"/><path class="svg__text" d="M97.02 22L93.43 13.60L96.00 13.60L98.28 19.07L100.61 13.60L102.96 13.60L99.36 22L97.02 22ZM106.53 21.24L106.53 21.24L107.31 19.49Q107.87 19.86 108.61 20.09Q109.36 20.32 110.08 20.32L110.08 20.32Q111.44 20.32 111.45 19.64L111.45 19.64Q111.45 19.28 111.06 19.11Q110.67 18.93 109.80 18.74L109.80 18.74Q108.85 18.53 108.22 18.30Q107.58 18.06 107.13 17.55Q106.67 17.03 106.67 16.16L106.67 16.16Q106.67 15.39 107.09 14.77Q107.51 14.15 108.35 13.79Q109.18 13.43 110.39 13.43L110.39 13.43Q111.21 13.43 112.02 13.62Q112.82 13.80 113.44 14.17L113.44 14.17L112.71 15.93Q111.51 15.28 110.38 15.28L110.38 15.28Q109.67 15.28 109.34 15.49Q109.02 15.70 109.02 16.04L109.02 16.04Q109.02 16.37 109.41 16.54Q109.79 16.71 110.64 16.89L110.64 16.89Q111.60 17.10 112.23 17.33Q112.86 17.56 113.32 18.07Q113.79 18.58 113.79 19.46L113.79 19.46Q113.79 20.21 113.37 20.83Q112.95 21.44 112.11 21.80Q111.27 22.17 110.06 22.17L110.06 22.17Q109.05 22.17 108.08 21.92Q107.12 21.67 106.53 21.24ZM117.93 17.80L117.93 17.80Q117.93 16.54 118.53 15.54Q119.13 14.55 120.18 13.99Q121.23 13.43 122.55 13.43L122.55 13.43Q123.71 13.43 124.63 13.84Q125.55 14.25 126.17 15.02L126.17 15.02L124.65 16.39Q123.84 15.40 122.67 15.40L122.67 15.40Q121.99 15.40 121.46 15.70Q120.92 16 120.63 16.54Q120.33 17.09 120.33 17.80L120.33 17.80Q120.33 18.51 120.63 19.05Q120.92 19.60 121.46 19.90Q121.99 20.20 122.67 20.20L122.67 20.20Q123.84 20.20 124.65 19.22L124.65 19.22L126.17 20.58Q125.56 21.35 124.63 21.76Q123.71 22.17 122.55 22.17L122.55 22.17Q121.23 22.17 120.18 21.61Q119.13 21.05 118.53 20.05Q117.93 19.06 117.93 17.80ZM130.27 17.80L130.27 17.80Q130.27 16.55 130.88 15.55Q131.48 14.56 132.54 14.00Q133.61 13.43 134.94 13.43L134.94 13.43Q136.27 13.43 137.33 14.00Q138.39 14.56 139.00 15.55Q139.61 16.55 139.61 17.80L139.61 17.80Q139.61 19.05 139.00 20.04Q138.39 21.04 137.33 21.60Q136.27 22.17 134.94 22.17L134.94 22.17Q133.61 22.17 132.54 21.60Q131.48 21.04 130.88 20.04Q130.27 19.05 130.27 17.80ZM132.67 17.80L132.67 17.80Q132.67 18.51 132.97 19.05Q133.27 19.60 133.79 19.90Q134.31 20.20 134.94 20.20L134.94 20.20Q135.58 20.20 136.09 19.90Q136.61 19.60 136.91 19.05Q137.21 18.51 137.21 17.80L137.21 17.80Q137.21 17.09 136.91 16.54Q136.61 16 136.09 15.70Q135.58 15.40 134.94 15.40L134.94 15.40Q134.30 15.40 133.79 15.70Q133.27 16 132.97 16.54Q132.67 17.09 132.67 17.80ZM148.31 22L144.34 22L144.34 13.60L148.31 13.60Q149.69 13.60 150.76 14.12Q151.82 14.63 152.41 15.58Q153.00 16.53 153.00 17.80L153.00 17.80Q153.00 19.07 152.41 20.02Q151.82 20.97 150.76 21.48Q149.69 22 148.31 22L148.31 22ZM146.72 15.50L146.72 20.10L148.22 20.10Q149.29 20.10 149.95 19.49Q150.60 18.88 150.60 17.80L150.60 17.80Q150.60 16.72 149.95 16.11Q149.29 15.50 148.22 15.50L148.22 15.50L146.72 15.50ZM164.47 22L157.73 22L157.73 13.60L164.32 13.60L164.32 15.44L160.09 15.44L160.09 16.85L163.82 16.85L163.82 18.63L160.09 18.63L160.09 20.17L164.47 20.17L164.47 22Z" fill="#FFFFFF" x="93.25"/></svg>