<svg xmlns="http://www.w3.org/2000/svg" width="154.68" height="35" viewBox="0 0 154.68 35"><rect class="svg__rect" x="0" y="0" width="82.25" height="35" fill="#00A601" style="--darkreader-inline-fill: #0a85ac;" data-darkreader-inline-fill=""/><rect class="svg__rect" x="80.25" y="0" width="74.43" height="35" fill="#00C800" style="--darkreader-inline-fill: #00a000;" data-darkreader-inline-fill=""/><path class="svg__text" d="M19.80 22L14.22 22L14.22 13.47L19.75 13.47L19.75 14.66L15.70 14.66L15.70 17.02L19.20 17.02L19.20 18.19L15.70 18.19L15.70 20.82L19.80 20.82L19.80 22ZM26.45 22L23.99 22L23.99 13.47L26.51 13.47Q27.64 13.47 28.52 13.97Q29.39 14.48 29.87 15.40Q30.35 16.33 30.35 17.52L30.35 17.52L30.35 17.95Q30.35 19.16 29.87 20.08Q29.39 21.00 28.49 21.50Q27.60 22 26.45 22L26.45 22ZM25.47 14.66L25.47 20.82L26.44 20.82Q27.61 20.82 28.23 20.09Q28.85 19.36 28.87 17.99L28.87 17.99L28.87 17.52Q28.87 16.13 28.26 15.40Q27.66 14.66 26.51 14.66L26.51 14.66L25.47 14.66ZM36.38 22L34.91 22L34.91 13.47L36.38 13.47L36.38 22ZM42.88 14.66L40.24 14.66L40.24 13.47L47.01 13.47L47.01 14.66L44.35 14.66L44.35 22L42.88 22L42.88 14.66ZM50.49 18.00L50.49 18.00L50.49 17.52Q50.49 16.28 50.93 15.32Q51.38 14.37 52.18 13.86Q52.99 13.35 54.03 13.35Q55.07 13.35 55.88 13.85Q56.69 14.35 57.13 15.29Q57.56 16.23 57.57 17.48L57.57 17.48L57.57 17.96Q57.57 19.21 57.14 20.16Q56.70 21.10 55.90 21.61Q55.09 22.12 54.04 22.12L54.04 22.12Q53.01 22.12 52.19 21.61Q51.38 21.10 50.94 20.17Q50.50 19.23 50.49 18.00ZM51.98 17.46L51.98 17.96Q51.98 19.36 52.52 20.13Q53.07 20.90 54.04 20.90L54.04 20.90Q55.03 20.90 55.56 20.15Q56.09 19.40 56.09 17.96L56.09 17.96L56.09 17.51Q56.09 16.09 55.55 15.34Q55.02 14.58 54.03 14.58L54.03 14.58Q53.07 14.58 52.53 15.33Q51.99 16.09 51.98 17.46L51.98 17.46ZM63.52 22L62.04 22L62.04 13.47L65.04 13.47Q66.51 13.47 67.31 14.13Q68.12 14.79 68.12 16.05L68.12 16.05Q68.12 16.90 67.70 17.48Q67.29 18.06 66.55 18.37L66.55 18.37L68.47 21.92L68.47 22L66.88 22L65.17 18.71L63.52 18.71L63.52 22ZM63.52 14.66L63.52 17.52L65.04 17.52Q65.79 17.52 66.21 17.15Q66.64 16.77 66.64 16.11L66.64 16.11Q66.64 15.43 66.25 15.05Q65.86 14.68 65.08 14.66L65.08 14.66L63.52 14.66Z" fill="#FFFFFF" style="--darkreader-inline-fill: #181a1b;" data-darkreader-inline-fill=""/><path class="svg__text" d="M95.86 22L93.43 22L97.14 13.60L99.48 13.60L103.20 22L100.73 22L100.07 20.37L96.52 20.37L95.86 22ZM98.29 15.93L97.21 18.61L99.37 18.61L98.29 15.93ZM109.14 15.48L106.56 15.48L106.56 13.60L114.08 13.60L114.08 15.48L111.52 15.48L111.52 22L109.14 22L109.14 15.48ZM118.03 17.80L118.03 17.80Q118.03 16.55 118.63 15.55Q119.23 14.56 120.30 14.00Q121.36 13.43 122.69 13.43L122.69 13.43Q124.02 13.43 125.09 14.00Q126.15 14.56 126.76 15.55Q127.36 16.55 127.36 17.80L127.36 17.80Q127.36 19.05 126.76 20.04Q126.15 21.04 125.09 21.60Q124.03 22.17 122.69 22.17L122.69 22.17Q121.36 22.17 120.30 21.60Q119.23 21.04 118.63 20.04Q118.03 19.05 118.03 17.80ZM120.42 17.80L120.42 17.80Q120.42 18.51 120.73 19.05Q121.03 19.60 121.54 19.90Q122.06 20.20 122.69 20.20L122.69 20.20Q123.33 20.20 123.85 19.90Q124.36 19.60 124.66 19.05Q124.96 18.51 124.96 17.80L124.96 17.80Q124.96 17.09 124.66 16.54Q124.36 16 123.85 15.70Q123.33 15.40 122.69 15.40L122.69 15.40Q122.05 15.40 121.54 15.70Q121.03 16 120.73 16.54Q120.42 17.09 120.42 17.80ZM134.29 22L132.09 22L132.09 13.60L134.05 13.60L137.00 18.45L139.88 13.60L141.83 13.60L141.86 22L139.68 22L139.65 17.55L137.49 21.17L136.44 21.17L134.29 17.67L134.29 22Z" fill="#FFFFFF" x="93.25" style="--darkreader-inline-fill: #181a1b;" data-darkreader-inline-fill=""/></svg>