<svg xmlns="http://www.w3.org/2000/svg" width="167.45" height="35" viewBox="0 0 167.45 35"><rect class="svg__rect" x="0" y="0" width="45.480000000000004" height="35" fill="#66309C"/><rect class="svg__rect" x="43.480000000000004" y="0" width="123.96999999999998" height="35" fill="#7E3EBE"/><path class="svg__text" d="M13.95 18.00L13.95 18.00L13.95 17.52Q13.95 16.28 14.39 15.32Q14.83 14.37 15.64 13.86Q16.44 13.35 17.49 13.35Q18.53 13.35 19.34 13.85Q20.14 14.35 20.58 15.29Q21.02 16.23 21.03 17.48L21.03 17.48L21.03 17.96Q21.03 19.21 20.59 20.16Q20.16 21.10 19.35 21.61Q18.55 22.12 17.50 22.12L17.50 22.12Q16.46 22.12 15.65 21.61Q14.84 21.10 14.40 20.17Q13.95 19.23 13.95 18.00ZM15.43 17.46L15.43 17.96Q15.43 19.36 15.98 20.13Q16.53 20.90 17.50 20.90L17.50 20.90Q18.48 20.90 19.01 20.15Q19.54 19.40 19.54 17.96L19.54 17.96L19.54 17.51Q19.54 16.09 19.01 15.34Q18.47 14.58 17.49 14.58L17.49 14.58Q16.53 14.58 15.98 15.33Q15.44 16.09 15.43 17.46L15.43 17.46ZM25.06 19.42L25.06 19.42L26.54 19.42Q26.54 20.15 27.02 20.55Q27.50 20.95 28.40 20.95L28.40 20.95Q29.17 20.95 29.56 20.63Q29.95 20.32 29.95 19.80L29.95 19.80Q29.95 19.24 29.55 18.94Q29.16 18.63 28.13 18.32Q27.10 18.01 26.49 17.63L26.49 17.63Q25.32 16.90 25.32 15.72L25.32 15.72Q25.32 14.69 26.16 14.02Q27.00 13.35 28.34 13.35L28.34 13.35Q29.23 13.35 29.93 13.68Q30.63 14.01 31.03 14.61Q31.43 15.22 31.43 15.96L31.43 15.96L29.95 15.96Q29.95 15.29 29.53 14.91Q29.11 14.54 28.33 14.54L28.33 14.54Q27.61 14.54 27.20 14.85Q26.80 15.16 26.80 15.71L26.80 15.71Q26.80 16.18 27.24 16.50Q27.67 16.81 28.67 17.10Q29.66 17.40 30.27 17.78Q30.87 18.16 31.15 18.65Q31.43 19.13 31.43 19.79L31.43 19.79Q31.43 20.86 30.61 21.49Q29.80 22.12 28.40 22.12L28.40 22.12Q27.47 22.12 26.69 21.77Q25.92 21.43 25.49 20.83Q25.06 20.22 25.06 19.42Z" fill="#FFFFFF"/><path class="svg__text" d="M64.41 22L57.67 22L57.67 13.60L64.26 13.60L64.26 15.44L60.02 15.44L60.02 16.85L63.76 16.85L63.76 18.63L60.02 18.63L60.02 20.17L64.41 20.17L64.41 22ZM71.55 22L69.22 22L69.22 13.60L71.17 13.60L74.88 18.07L74.88 13.60L77.21 13.60L77.21 22L75.26 22L71.55 17.52L71.55 22ZM86.34 22L82.37 22L82.37 13.60L86.34 13.60Q87.73 13.60 88.79 14.12Q89.86 14.63 90.45 15.58Q91.04 16.53 91.04 17.80L91.04 17.80Q91.04 19.07 90.45 20.02Q89.86 20.97 88.79 21.48Q87.73 22 86.34 22L86.34 22ZM84.75 15.50L84.75 20.10L86.25 20.10Q87.33 20.10 87.98 19.49Q88.63 18.88 88.63 17.80L88.63 17.80Q88.63 16.72 87.98 16.11Q87.33 15.50 86.25 15.50L86.25 15.50L84.75 15.50ZM97.18 22L94.76 22L98.47 13.60L100.81 13.60L104.53 22L102.06 22L101.40 20.37L97.85 20.37L97.18 22ZM99.62 15.93L98.54 18.61L100.70 18.61L99.62 15.93ZM111.26 22L107.67 13.60L110.24 13.60L112.52 19.07L114.85 13.60L117.20 13.60L113.60 22L111.26 22ZM120.93 17.80L120.93 17.80Q120.93 16.55 121.53 15.55Q122.13 14.56 123.20 14.00Q124.26 13.43 125.59 13.43L125.59 13.43Q126.92 13.43 127.98 14.00Q129.05 14.56 129.65 15.55Q130.26 16.55 130.26 17.80L130.26 17.80Q130.26 19.05 129.65 20.04Q129.05 21.04 127.99 21.60Q126.93 22.17 125.59 22.17L125.59 22.17Q124.26 22.17 123.20 21.60Q122.13 21.04 121.53 20.04Q120.93 19.05 120.93 17.80ZM123.32 17.80L123.32 17.80Q123.32 18.51 123.62 19.05Q123.93 19.60 124.44 19.90Q124.96 20.20 125.59 20.20L125.59 20.20Q126.23 20.20 126.74 19.90Q127.26 19.60 127.56 19.05Q127.86 18.51 127.86 17.80L127.86 17.80Q127.86 17.09 127.56 16.54Q127.26 16 126.74 15.70Q126.23 15.40 125.59 15.40L125.59 15.40Q124.95 15.40 124.44 15.70Q123.93 16 123.62 16.54Q123.32 17.09 123.32 17.80ZM134.92 18.26L134.92 18.26L134.92 13.60L137.30 13.60L137.30 18.19Q137.30 20.20 138.89 20.20L138.89 20.20Q140.47 20.20 140.47 18.19L140.47 18.19L140.47 13.60L142.82 13.60L142.82 18.26Q142.82 20.13 141.78 21.15Q140.74 22.17 138.87 22.17L138.87 22.17Q136.99 22.17 135.96 21.15Q134.92 20.13 134.92 18.26ZM150.28 22L147.90 22L147.90 13.60L151.75 13.60Q152.89 13.60 153.73 13.98Q154.56 14.35 155.02 15.06Q155.48 15.76 155.48 16.71L155.48 16.71Q155.48 17.62 155.05 18.30Q154.62 18.98 153.83 19.36L153.83 19.36L155.64 22L153.10 22L151.58 19.77L150.28 19.77L150.28 22ZM150.28 15.47L150.28 17.93L151.60 17.93Q152.33 17.93 152.70 17.61Q153.08 17.29 153.08 16.71L153.08 16.71Q153.08 16.12 152.70 15.79Q152.33 15.47 151.60 15.47L151.60 15.47L150.28 15.47Z" fill="#FFFFFF" x="56.480000000000004"/></svg>