<svg xmlns="http://www.w3.org/2000/svg" width="179" height="35" viewBox="0 0 179 35"><rect class="svg__rect" x="0" y="0" width="45.480000000000004" height="35" fill="#66309C"/><rect class="svg__rect" x="43.480000000000004" y="0" width="135.51999999999998" height="35" fill="#7E3EBE"/><path class="svg__text" d="M13.95 18.00L13.95 18.00L13.95 17.52Q13.95 16.28 14.39 15.32Q14.83 14.37 15.64 13.86Q16.44 13.35 17.49 13.35Q18.53 13.35 19.34 13.85Q20.14 14.35 20.58 15.29Q21.02 16.23 21.03 17.48L21.03 17.48L21.03 17.96Q21.03 19.21 20.59 20.16Q20.16 21.10 19.35 21.61Q18.55 22.12 17.50 22.12L17.50 22.12Q16.46 22.12 15.65 21.61Q14.84 21.10 14.40 20.17Q13.95 19.23 13.95 18.00ZM15.43 17.46L15.43 17.96Q15.43 19.36 15.98 20.13Q16.53 20.90 17.50 20.90L17.50 20.90Q18.48 20.90 19.01 20.15Q19.54 19.40 19.54 17.96L19.54 17.96L19.54 17.51Q19.54 16.09 19.01 15.34Q18.47 14.58 17.49 14.58L17.49 14.58Q16.53 14.58 15.98 15.33Q15.44 16.09 15.43 17.46L15.43 17.46ZM25.06 19.42L25.06 19.42L26.54 19.42Q26.54 20.15 27.02 20.55Q27.50 20.95 28.40 20.95L28.40 20.95Q29.17 20.95 29.56 20.63Q29.95 20.32 29.95 19.80L29.95 19.80Q29.95 19.24 29.55 18.94Q29.16 18.63 28.13 18.32Q27.10 18.01 26.49 17.63L26.49 17.63Q25.32 16.90 25.32 15.72L25.32 15.72Q25.32 14.69 26.16 14.02Q27.00 13.35 28.34 13.35L28.34 13.35Q29.23 13.35 29.93 13.68Q30.63 14.01 31.03 14.61Q31.43 15.22 31.43 15.96L31.43 15.96L29.95 15.96Q29.95 15.29 29.53 14.91Q29.11 14.54 28.33 14.54L28.33 14.54Q27.61 14.54 27.20 14.85Q26.80 15.16 26.80 15.71L26.80 15.71Q26.80 16.18 27.24 16.50Q27.67 16.81 28.67 17.10Q29.66 17.40 30.27 17.78Q30.87 18.16 31.15 18.65Q31.43 19.13 31.43 19.79L31.43 19.79Q31.43 20.86 30.61 21.49Q29.80 22.12 28.40 22.12L28.40 22.12Q27.47 22.12 26.69 21.77Q25.92 21.43 25.49 20.83Q25.06 20.22 25.06 19.42Z" fill="#FFFFFF"/><path class="svg__text" d="M64.41 22L57.67 22L57.67 13.60L64.26 13.60L64.26 15.44L60.02 15.44L60.02 16.85L63.76 16.85L63.76 18.63L60.02 18.63L60.02 20.17L64.41 20.17L64.41 22ZM71.55 22L69.22 22L69.22 13.60L71.17 13.60L74.88 18.07L74.88 13.60L77.21 13.60L77.21 22L75.26 22L71.55 17.52L71.55 22ZM86.34 22L82.37 22L82.37 13.60L86.34 13.60Q87.73 13.60 88.79 14.12Q89.86 14.63 90.45 15.58Q91.04 16.53 91.04 17.80L91.04 17.80Q91.04 19.07 90.45 20.02Q89.86 20.97 88.79 21.48Q87.73 22 86.34 22L86.34 22ZM84.75 15.50L84.75 20.10L86.25 20.10Q87.33 20.10 87.98 19.49Q88.63 18.88 88.63 17.80L88.63 17.80Q88.63 16.72 87.98 16.11Q87.33 15.50 86.25 15.50L86.25 15.50L84.75 15.50ZM102.51 22L95.77 22L95.77 13.60L102.36 13.60L102.36 15.44L98.12 15.44L98.12 16.85L101.85 16.85L101.85 18.63L98.12 18.63L98.12 20.17L102.51 20.17L102.51 22ZM108.73 22L106.31 22L110.02 13.60L112.36 13.60L116.07 22L113.61 22L112.95 20.37L109.39 20.37L108.73 22ZM111.17 15.93L110.09 18.61L112.25 18.61L111.17 15.93ZM122.81 22L119.22 13.60L121.79 13.60L124.07 19.07L126.40 13.60L128.75 13.60L125.15 22L122.81 22ZM132.47 17.80L132.47 17.80Q132.47 16.55 133.08 15.55Q133.68 14.56 134.75 14.00Q135.81 13.43 137.14 13.43L137.14 13.43Q138.47 13.43 139.53 14.00Q140.60 14.56 141.20 15.55Q141.81 16.55 141.81 17.80L141.81 17.80Q141.81 19.05 141.20 20.04Q140.60 21.04 139.54 21.60Q138.47 22.17 137.14 22.17L137.14 22.17Q135.81 22.17 134.75 21.60Q133.68 21.04 133.08 20.04Q132.47 19.05 132.47 17.80ZM134.87 17.80L134.87 17.80Q134.87 18.51 135.17 19.05Q135.47 19.60 135.99 19.90Q136.51 20.20 137.14 20.20L137.14 20.20Q137.78 20.20 138.29 19.90Q138.81 19.60 139.11 19.05Q139.41 18.51 139.41 17.80L139.41 17.80Q139.41 17.09 139.11 16.54Q138.81 16 138.29 15.70Q137.78 15.40 137.14 15.40L137.14 15.40Q136.50 15.40 135.99 15.70Q135.47 16 135.17 16.54Q134.87 17.09 134.87 17.80ZM146.47 18.26L146.47 18.26L146.47 13.60L148.85 13.60L148.85 18.19Q148.85 20.20 150.44 20.20L150.44 20.20Q152.02 20.20 152.02 18.19L152.02 18.19L152.02 13.60L154.37 13.60L154.37 18.26Q154.37 20.13 153.33 21.15Q152.29 22.17 150.42 22.17L150.42 22.17Q148.54 22.17 147.50 21.15Q146.47 20.13 146.47 18.26ZM161.83 22L159.45 22L159.45 13.60L163.29 13.60Q164.44 13.60 165.28 13.98Q166.11 14.35 166.57 15.06Q167.03 15.76 167.03 16.71L167.03 16.71Q167.03 17.62 166.60 18.30Q166.17 18.98 165.38 19.36L165.38 19.36L167.19 22L164.65 22L163.12 19.77L161.83 19.77L161.83 22ZM161.83 15.47L161.83 17.93L163.15 17.93Q163.88 17.93 164.25 17.61Q164.62 17.29 164.62 16.71L164.62 16.71Q164.62 16.12 164.25 15.79Q163.88 15.47 163.15 15.47L163.15 15.47L161.83 15.47Z" fill="#FFFFFF" x="56.480000000000004"/></svg>